<?xml version="1.0"?>
<svg xmlns="http://www.w3.org/2000/svg" id="outline" viewBox="0 0 512 512" width="512" height="512"><title>calendar-date-time-organization-schedule</title><path d="M488,64H400V55.99854a32,32,0,0,0-64,0V64h-8V55.99854a32,32,0,0,0-64,0V64h-8V55.99854a32,32,0,0,0-64,0V64h-8V55.99854a32,32,0,0,0-64,0V64H24a8.00008,8.00008,0,0,0-8,8V480a8.00008,8.00008,0,0,0,8,8H488a8.00008,8.00008,0,0,0,8-8V72A8.00008,8.00008,0,0,0,488,64ZM352,55.99854a16,16,0,1,1,32,0V64H352Zm-72,0a16,16,0,1,1,32,0V64H280Zm-72,0a16,16,0,1,1,32,0V64H208Zm-72,0a16,16,0,1,1,32,0V64H136ZM120,80V96a8,8,0,0,0,16,0V80h56V96a8,8,0,0,0,16,0V80h56V96a8,8,0,0,0,16,0V80h56V96a8,8,0,0,0,16,0V80H480v56H32V80ZM480,472H32V440H352a144.14741,144.14741,0,0,0,128-78.07776ZM248,376H200V328h48Zm-64,0H136V328h48Zm-64,0H72V328h48Zm16-176h48v48H136Zm64,0h48v48H200Zm64,0h48v48H264Zm64,0h48v48H328Zm64,0h48v48H392Zm32,112H392V264h48v45.65863A55.8045,55.8045,0,0,1,424,312Zm-160,0V264h48v48ZM72,264h48v48H72Zm64,0h48v48H136Zm64,0h48v48H200Zm-80-16H72V200h48Zm144,80h48v48H264Zm64-64h48v48H328Zm64,104V328h32a71.884,71.884,0,0,0,55.88037-26.663A128.19317,128.19317,0,0,1,366.146,423.21436,71.86906,71.86906,0,0,0,392,368Zm64-66.08325V192a8.00008,8.00008,0,0,0-8-8H64a8.00008,8.00008,0,0,0-8,8V384a8.00008,8.00008,0,0,0,8,8H320a8.00008,8.00008,0,0,0,8-8V328h48v40a56.06322,56.06322,0,0,1-56,56H32V152H480V256A55.96446,55.96446,0,0,1,456,301.91675Z"/></svg>
