<?xml version="1.0" encoding="iso-8859-1"?>
<!-- Generator: Adobe Illustrator 19.0.0, SVG Export Plug-In . SVG Version: 6.00 Build 0)  -->
<svg version="1.1" id="Capa_1" xmlns="http://www.w3.org/2000/svg" xmlns:xlink="http://www.w3.org/1999/xlink" x="0px" y="0px"
	 viewBox="0 0 480 480" style="enable-background:new 0 0 480 480;" xml:space="preserve">
<g>
	<g>
		<g>
			<path d="M240,0C107.452,0,0,107.452,0,240s107.452,240,240,240c132.486-0.15,239.85-107.514,240-240C480,107.452,372.548,0,240,0
				z M240,464C116.288,464,16,363.712,16,240S116.288,16,240,16c123.653,0.141,223.859,100.347,224,224
				C464,363.712,363.712,464,240,464z"/>
			<path d="M240,24C120.706,24,24,120.706,24,240s96.706,216,216,216c119.239-0.132,215.868-96.761,216-216
				C456,120.706,359.294,24,240,24z M240,440c-110.457,0-200-89.543-200-200S129.543,40,240,40
				c110.406,0.123,199.877,89.594,200,200C440,350.457,350.457,440,240,440z"/>
			<path d="M240,96c4.418,0,8-3.582,8-8V56c0-4.418-3.582-8-8-8s-8,3.582-8,8v32C232,92.418,235.582,96,240,96z"/>
			<path d="M145.064,91.576c1.43,2.478,4.075,4.003,6.936,4c1.402-0.001,2.778-0.371,3.992-1.072
				c3.826-2.209,5.137-7.102,2.928-10.928l-4-6.928c-2.214-3.776-7.051-5.072-10.856-2.909c-3.841,2.184-5.184,7.068-3,10.909
				L145.064,91.576z"/>
			<path d="M76.64,154.928l6.928,4c1.215,0.705,2.595,1.075,4,1.072c2.858,0,5.499-1.525,6.928-4
				c2.209-3.826,0.899-8.719-2.928-10.928l-6.928-4c-3.805-2.163-8.642-0.867-10.856,2.909
				C71.55,147.792,72.828,152.694,76.64,154.928z"/>
			<path d="M88,232H56c-4.418,0-8,3.582-8,8s3.582,8,8,8h32c4.418,0,8-3.582,8-8S92.418,232,88,232z"/>
			<path d="M83.584,321.072l-6.928,4c-2.475,1.429-4,4.07-4,6.928c0,4.418,3.581,8,8,8c1.405,0.003,2.785-0.367,4-1.072l6.928-4
				c0.031-0.018,0.062-0.036,0.093-0.054c3.811-2.235,5.089-7.136,2.854-10.948C92.297,320.115,87.395,318.837,83.584,321.072z"/>
			<path d="M156.027,385.568c-3.812-2.234-8.713-0.956-10.947,2.856l-4,6.928c-0.701,1.214-1.07,2.59-1.072,3.992
				c-0.005,4.418,3.573,8.004,7.992,8.008c2.861,0.003,5.506-1.522,6.936-4l4-6.928
				C161.099,392.619,159.803,387.782,156.027,385.568z"/>
			<path d="M240,384c-4.418,0-8,3.582-8,8v32c0,4.418,3.582,8,8,8s8-3.582,8-8v-32C248,387.582,244.418,384,240,384z"/>
			<path d="M334.92,388.424c-0.018-0.031-0.036-0.062-0.054-0.093c-2.235-3.811-7.136-5.089-10.948-2.854s-5.089,7.136-2.854,10.948
				l4,6.928c1.43,2.478,4.075,4.003,6.936,4c1.401-0.001,2.778-0.371,3.992-1.072c3.826-2.209,5.137-7.102,2.928-10.928
				L334.92,388.424z"/>
			<path d="M403.344,325.072l-6.928-4c-0.031-0.018-0.062-0.036-0.093-0.054c-3.841-2.183-8.725-0.84-10.908,3.002
				c-2.183,3.841-0.84,8.725,3.002,10.908l6.928,4c1.215,0.705,2.595,1.075,4,1.072c2.858,0,5.499-1.525,6.928-4
				C408.481,332.174,407.17,327.281,403.344,325.072z"/>
			<path d="M424,232h-32c-4.418,0-8,3.582-8,8s3.582,8,8,8h32c4.418,0,8-3.582,8-8S428.418,232,424,232z"/>
			<path d="M392.432,160c1.405,0.003,2.785-0.367,4-1.072l6.928-4c3.776-2.214,5.072-7.051,2.909-10.856
				c-2.184-3.841-7.068-5.184-10.909-3l-6.928,4c-2.475,1.429-4,4.07-4,6.928C384.432,156.418,388.014,160,392.432,160z"/>
			<path d="M328,95.576c2.861,0.003,5.506-1.522,6.936-4l4-6.928c2.163-3.805,0.867-8.641-2.908-10.854
				c-3.811-2.235-8.713-0.957-10.948,2.854l-4,6.928c-0.701,1.214-1.07,2.59-1.072,3.992C320.004,91.986,323.582,95.571,328,95.576z
				"/>
			<path d="M248,217.472V128c0-4.418-3.582-8-8-8s-8,3.582-8,8v89.472c-6.775,2.42-12.108,7.753-14.528,14.528H160
				c-4.418,0-8,3.582-8,8s3.582,8,8,8h57.472c4.384,12.476,18.052,19.036,30.528,14.652c12.476-4.384,19.036-18.052,14.652-30.528
				C260.243,225.27,254.854,219.88,248,217.472z M240,248c-4.418,0-8-3.582-8-8s3.582-8,8-8s8,3.582,8,8S244.418,248,240,248z"/>
		</g>
	</g>
</g>
<g>
</g>
<g>
</g>
<g>
</g>
<g>
</g>
<g>
</g>
<g>
</g>
<g>
</g>
<g>
</g>
<g>
</g>
<g>
</g>
<g>
</g>
<g>
</g>
<g>
</g>
<g>
</g>
<g>
</g>
</svg>
