<svg height="512pt" viewBox="-16 0 512 512.00152" width="512pt" xmlns="http://www.w3.org/2000/svg"><path d="m473.3125 244.515625-89.996094-59.996094c-4.605468-3.070312-10.523437-3.355469-15.398437-.746093-4.878907 2.609374-7.921875 7.691406-7.921875 13.226562v14.996094h-30v-196.992188c0-8.285156-6.714844-14.99999975-15-14.99999975h-299.671875c-8.5625-.17968725-15.496094 6.83203175-15.32031275 15.29687475v421.691407c0 6.457031 4.13281275 12.1875 10.25781275 14.230468l179.996093 60c9.695313 3.234375 19.742188-3.996094 19.742188-14.230468v-45h104.996094c8.285156 0 15-6.714844 15-15v-134.996094h30v15c0 5.53125 3.042968 10.613281 7.921875 13.226562 4.863281 2.601563 10.78125 2.328125 15.394531-.746094l90-59.996093c4.171875-2.785157 6.679688-7.46875 6.679688-12.484375 0-5.011719-2.507813-9.695313-6.679688-12.480469zm-293.3125 231.664063-149.996094-50v-386.664063l149.996094 76.664063zm119.996094-54.1875h-89.996094v-314.992188c0-5.632812-3.160156-10.792969-8.175781-13.355469l-124.515625-63.640625h222.6875v181.992188h-45c-8.28125 0-15 6.71875-15 15v60c0 8.285156 6.71875 15 15 15h45zm89.996094-133.023438v-1.972656c0-8.28125-6.714844-15-14.996094-15h-105v-29.996094h105c8.28125 0 14.996094-6.71875 14.996094-15v-1.972656l47.957031 31.96875zm0 0"/><path d="m135 211.996094c-8.28125 0-15 6.71875-15 15v60c0 8.285156 6.71875 15 15 15 8.285156 0 15-6.714844 15-15v-60c0-8.28125-6.714844-15-15-15zm0 0"/></svg>