<svg id="Layer_2" height="512" viewBox="0 0 128 128" width="512" xmlns="http://www.w3.org/2000/svg" data-name="Layer 2"><path d="m15.82 85.71a1.751 1.751 0 0 0 1.695.457l99.733-26.724a13.005 13.005 0 0 0 9.186-15.91 1.749 1.749 0 0 0 -1.258-1.242l-2.456-.627-9.65-2.464a41.985 41.985 0 0 0 -18.775-.426c-.884.183-1.654.363-2.444.577l-23.231 7.57-6.375-5.765-23.611-21.356a1.744 1.744 0 0 0 -1.627-.393l-9.669 2.593a1.75 1.75 0 0 0 -1.1 2.489l8.962 17.487-2.628.7a5.688 5.688 0 1 0 2.945 10.987l4.994-1.338 1.648 3.213-24.91 8.121-10.749-8.959a1.75 1.75 0 0 0 -2.843 1.039l-2.509 14.14a1.75 1.75 0 0 0 .481 1.539zm96.385-43.118 3.167.809-13.592 3.641a2.25 2.25 0 0 1 -2.5-.99l-2.051-4.24a38.464 38.464 0 0 1 14.976.78zm-51.6 1.8 8.582 7.762-4.049 1.085-6.7-8.266zm-25.989 5.9a2.187 2.187 0 0 1 -1.132-4.226l4.716-1.266 6.026-1.614a2.187 2.187 0 0 1 1.131 4.226zm15.104-2.153a5.692 5.692 0 0 0 -5.289-8.523 5.719 5.719 0 0 0 -1.108.185l-.762.2-3.9 1.044-8.323-16.224 6.655-1.784 20.52 18.563-2.589.694a1.75 1.75 0 0 0 -.906 2.793l9.115 11.242a1.751 1.751 0 0 0 1.813.588l7.331-1.964 2.649 2.4-24.532 6.565-4.179-8.147-2.241-4.371 2.292-.614a5.646 5.646 0 0 0 3.454-2.647zm-43.143 11.184 9.174 7.645a1.752 1.752 0 0 0 1.662.319l26.368-8.587 4.143 8.077a1.813 1.813 0 0 0 2.01.892l29-7.771a1.75 1.75 0 0 0 .721-2.988l-8.046-7.277 21.232-6.92c.276-.074.554-.144.832-.21l2.49 5.147a5.776 5.776 0 0 0 6.52 2.778l19.617-5.26.962.246a9.493 9.493 0 0 1 -6.919 10.648l-98.755 26.461-12.835-12.923z"/><path d="m126.25 97.372h-124.5a1.75 1.75 0 0 0 -1.75 1.75v7.778a1.75 1.75 0 0 0 1.75 1.75h124.5a1.75 1.75 0 0 0 1.75-1.75v-7.778a1.75 1.75 0 0 0 -1.75-1.75zm-1.75 7.777h-121v-4.277h121z"/></svg>